<svg width="71" height="30" viewBox="0 0 71 30" fill="none" xmlns="http://www.w3.org/2000/svg">
<path d="M0.0227051 24V0.727295H4.94316V10.9886H5.24998L13.625 0.727295H19.5227L10.8864 11.1477L19.625 24H13.7386L7.36362 14.4318L4.94316 17.3864V24H0.0227051ZM32.0938 16.5682V6.54547H36.9347V24H32.2869V20.8295H32.1051C31.7112 21.8523 31.0559 22.6742 30.1392 23.2955C29.2301 23.9167 28.1203 24.2273 26.8097 24.2273C25.643 24.2273 24.6165 23.9621 23.7301 23.4318C22.8438 22.9015 22.1506 22.1477 21.6506 21.1705C21.1581 20.1932 20.9081 19.0227 20.9006 17.6591V6.54547H25.7415V16.7955C25.7491 17.8258 26.0256 18.6402 26.571 19.2386C27.1165 19.8371 27.8475 20.1364 28.7642 20.1364C29.3475 20.1364 29.893 20.0038 30.4006 19.7386C30.9081 19.4659 31.3172 19.0644 31.6278 18.5341C31.946 18.0038 32.1013 17.3485 32.0938 16.5682ZM48.7614 24.3409C46.9659 24.3409 45.4205 23.9773 44.125 23.25C42.8371 22.5152 41.8447 21.4773 41.1477 20.1364C40.4508 18.7879 40.1023 17.1932 40.1023 15.3523C40.1023 13.5568 40.4508 11.9811 41.1477 10.625C41.8447 9.26896 42.8258 8.21214 44.0909 7.45456C45.3636 6.69699 46.8561 6.3182 48.5682 6.3182C49.7197 6.3182 50.7917 6.50381 51.7841 6.87502C52.7841 7.23866 53.6553 7.7879 54.3977 8.52275C55.1477 9.2576 55.7311 10.1818 56.1477 11.2955C56.5644 12.4015 56.7727 13.697 56.7727 15.1818V16.5114H42.0341V13.5114H52.2159C52.2159 12.8144 52.0644 12.197 51.7614 11.6591C51.4583 11.1212 51.0379 10.7008 50.5 10.3977C49.9697 10.0871 49.3523 9.93184 48.6477 9.93184C47.9129 9.93184 47.2614 10.1023 46.6932 10.4432C46.1326 10.7765 45.6932 11.2273 45.375 11.7955C45.0568 12.3561 44.8939 12.9811 44.8864 13.6705V16.5227C44.8864 17.3864 45.0455 18.1326 45.3636 18.7614C45.6894 19.3902 46.1477 19.875 46.7386 20.2159C47.3295 20.5568 48.0303 20.7273 48.8409 20.7273C49.3788 20.7273 49.8712 20.6515 50.3182 20.5C50.7652 20.3485 51.1477 20.1212 51.4659 19.8182C51.7841 19.5152 52.0265 19.1439 52.1932 18.7045L56.6705 19C56.4432 20.0758 55.9773 21.0152 55.2727 21.8182C54.5758 22.6136 53.6742 23.2348 52.5682 23.6818C51.4697 24.1212 50.2008 24.3409 48.7614 24.3409Z" fill="white"/>
<path d="M65 28.675L64.275 28.015C61.7 25.68 60 24.14 60 22.25C60 20.71 61.21 19.5 62.75 19.5C63.62 19.5 64.455 19.905 65 20.545C65.545 19.905 66.38 19.5 67.25 19.5C68.79 19.5 70 20.71 70 22.25C70 24.14 68.3 25.68 65.725 28.02L65 28.675Z" fill="#AF0000"/>
</svg>